<svg xmlns="http://www.w3.org/2000/svg" xmlns:xlink="http://www.w3.org/1999/xlink" width="108" height="108" viewBox="0 0 108 108"><defs><filter id="a" x="0" y="0" width="108" height="108" filterUnits="userSpaceOnUse"><feOffset input="SourceAlpha"/><feGaussianBlur stdDeviation="8" result="b"/><feFlood flood-opacity="0.2"/><feComposite operator="in" in2="b"/><feComposite in="SourceGraphic"/></filter></defs><g transform="translate(-1635 -3199.604)"><g transform="matrix(1, 0, 0, 1, 1635, 3199.6)" filter="url(#a)"><circle cx="30" cy="30" r="30" transform="translate(24 24)" fill="#fff"/></g><path d="M26.242,8.772H4.274L10.89,2.156A1.259,1.259,0,1,0,9.11.375L.375,9.128A1.252,1.252,0,0,0,0,10.009a1.189,1.189,0,0,0,.375.881L9.11,19.644A1.281,1.281,0,0,0,9.991,20a1.252,1.252,0,0,0,1.237-1.256,1.219,1.219,0,0,0-.337-.862L4.274,11.265H26.242A1.256,1.256,0,0,0,27.5,10.009a1.24,1.24,0,0,0-1.256-1.237Z" transform="translate(1675.535 3242.604)" fill="#e5a812" fill-rule="evenodd"/></g></svg>