<svg xmlns="http://www.w3.org/2000/svg" xmlns:xlink="http://www.w3.org/1999/xlink" width="108" height="108" viewBox="0 0 108 108"><defs><filter id="a" x="0" y="0" width="108" height="108" filterUnits="userSpaceOnUse"><feOffset input="SourceAlpha"/><feGaussianBlur stdDeviation="8" result="b"/><feFlood flood-opacity="0.2"/><feComposite operator="in" in2="b"/><feComposite in="SourceGraphic"/></filter></defs><g transform="translate(-1715 -3199.604)"><g transform="matrix(1, 0, 0, 1, 1715, 3199.6)" filter="url(#a)"><circle cx="30" cy="30" r="30" transform="translate(24 24)" fill="#fff"/></g><path d="M1.256,8.772H23.224L16.607,2.156A1.259,1.259,0,1,1,18.388.375l8.735,8.754a1.252,1.252,0,0,1,.375.881,1.189,1.189,0,0,1-.375.881l-8.735,8.754a1.281,1.281,0,0,1-.881.356,1.252,1.252,0,0,1-1.237-1.256,1.219,1.219,0,0,1,.337-.862l6.617-6.617H1.256A1.256,1.256,0,0,1,0,10.009,1.24,1.24,0,0,1,1.256,8.772Z" transform="translate(1754.968 3242.604)" fill="#e5a812" fill-rule="evenodd"/></g></svg>