<svg xmlns="http://www.w3.org/2000/svg" width="110" height="110" viewBox="0 0 110 110"><g transform="translate(-902 -4765)"><path d="M49,39a4,4,0,1,0,4,4A4,4,0,0,0,49,39Zm0,6a2,2,0,1,1,2-2A2,2,0,0,1,49,45Z" transform="translate(940.111 4796.499)"/><path d="M102.129,61.394V50.479A12.6,12.6,0,0,0,89.71,37.745H79.065V26.717a8.926,8.926,0,0,0-4.3-7.688,8.674,8.674,0,0,0-8.812-.193L63.1,20.3V14.366a9.278,9.278,0,0,0-5.3-8.561,8.449,8.449,0,0,0-9.329,1.443l-33.946,30.5H13.419A12.6,12.6,0,0,0,1,50.479v47.3a12.6,12.6,0,0,0,12.419,12.734H89.71a12.6,12.6,0,0,0,12.419-12.734V86.863a9,9,0,0,0,8.871-9.1V70.49A9,9,0,0,0,102.129,61.394ZM67.6,22.06a5.323,5.323,0,0,1,7.918,4.657V37.745H36.92ZM50.81,9.984a4.941,4.941,0,0,1,5.525-.864,5.666,5.666,0,0,1,3.213,5.247v7.744L28.97,37.745H19.911Zm47.77,87.795a9,9,0,0,1-8.871,9.1H13.419a9,9,0,0,1-8.871-9.1v-47.3a9,9,0,0,1,8.871-9.1H89.71a9,9,0,0,1,8.871,9.1V61.394H80.839c-8.871,0-8.871,9.585-8.871,12.734s0,12.734,8.871,12.734H98.581Zm8.871-20.011a5.4,5.4,0,0,1-5.323,5.458H80.839c-3.2,0-5.323-1.548-5.323-9.1s2.127-9.1,5.323-9.1h21.29a5.4,5.4,0,0,1,5.323,5.458Z" transform="translate(901 4764.487)"/><path d="M49.694,22.235l-.954.505A1.333,1.333,0,0,0,48,23.826a1.294,1.294,0,0,0,.608,1.148l6.106,4.041a1.7,1.7,0,0,0,1.763.043l.269-.158a18.625,18.625,0,0,0,9.516-14.432h2.009a2.615,2.615,0,0,0,2.4-1.417,2.085,2.085,0,0,0-.47-2.415l-6.97-8.273a3.955,3.955,0,0,0-3.051-1.354h0a3.949,3.949,0,0,0-3.05,1.356L50.2,10.6a2.106,2.106,0,0,0-.476,2.439,2.644,2.644,0,0,0,2.429,1.432h2.119A8.16,8.16,0,0,1,49.694,22.235Zm7.463-9.119a1.187,1.187,0,0,0-.11-.44l-.029-.062s0,0,0,0a1.416,1.416,0,0,0-.687-.678c-.3-.144,0,0,0,0a1.69,1.69,0,0,0-.267-.1,2.09,2.09,0,0,0-.487-.062H53.016l6.567-7.8a.773.773,0,0,1,.6-.267.783.783,0,0,1,.6.267l6.576,7.8h-2.57a1.445,1.445,0,0,0-1.526,1.347,15.724,15.724,0,0,1-7.594,13.16l-3.457-2.29a10.507,10.507,0,0,0,4.944-10.872Z" transform="translate(941.111 4763.991)"/></g></svg>