<svg xmlns="http://www.w3.org/2000/svg" width="153.001" height="133.001" viewBox="0 0 153.001 133.001"><g transform="translate(-355.5 -4758.5)"><path d="M58.931,66.7,84.793,40.222a6.829,6.829,0,0,0-2.225-5.15A7.909,7.909,0,0,0,77.034,33c-8.276,0-13.836,7.871-18.8,13.071L46,58.878" transform="translate(422.206 4794.399)" fill="none" stroke="#202020" stroke-linecap="round" stroke-linejoin="round" stroke-width="3"/><path d="M66.689,34.618A7.865,7.865,0,0,0,61.517,33C55,33,50.19,37.819,46,42.489" transform="translate(422.206 4794.396)" fill="none" stroke="#202020" stroke-linecap="round" stroke-linejoin="round" stroke-width="3"/><path d="M80.585,72.293c2.586-4.814,10.345-4.814,10.345-4.814h36.206a5.254,5.254,0,0,0,5.172-4.814c0-4.814-6.569-9.629-15.517-9.629H82.37a29.707,29.707,0,0,1-13.241-4.814A37.148,37.148,0,0,0,46.965,41a29.94,29.94,0,0,0-12.621,2.792,78.27,78.27,0,0,1-20.069,5.922A88.238,88.238,0,0,1,3,50.629V79.514s5.3-9.629,21.155-9.629c11.069,0,21.672,3.514,31.707,7.438a89.85,89.85,0,0,0,32.482,7,27.987,27.987,0,0,0,13.371-2.913,36.588,36.588,0,0,0,15.077-13.937" transform="translate(354 4805.658)" fill="none" stroke="#202020" stroke-linecap="round" stroke-linejoin="round" stroke-width="3"/><path d="M18,59.293V28" transform="translate(377.793 4787.365)" fill="none" stroke="#202020" stroke-linejoin="round" stroke-width="3"/><path d="M46,28V71.329" transform="translate(422.206 4787.365)" fill="none" stroke="#202020" stroke-linejoin="round" stroke-width="3"/><path d="M49.62,36.443H16V26.814A5,5,0,0,1,21.172,22H93.585a5,5,0,0,1,5.172,4.814v9.629H65.137" transform="translate(374.62 4778.921)" fill="none" stroke="#202020" stroke-linecap="round" stroke-linejoin="round" stroke-width="3"/><path d="M40.29,13.918c4.19,3.9,7.578,21.159,7.578,21.159s-18.543-3.153-22.733-7.053a9.494,9.494,0,0,1,0-14.106A11.288,11.288,0,0,1,40.29,13.918Z" transform="translate(384.132 4763.438)" fill="none" stroke="#202020" stroke-linecap="round" stroke-linejoin="round" stroke-width="3"/><path d="M39.578,13.918C35.388,17.817,32,35.077,32,35.077s18.543-3.153,22.733-7.053a9.494,9.494,0,0,0,0-14.106,11.288,11.288,0,0,0-15.155,0Z" transform="translate(399.999 4763.438)" fill="none" stroke="#202020" stroke-linecap="round" stroke-linejoin="round" stroke-width="3"/><path d="M29,22V74.957" transform="translate(395.24 4778.921)" fill="none" stroke="#202020" stroke-linejoin="round" stroke-width="3"/><path d="M35,22V79.772" transform="translate(404.758 4778.921)" fill="none" stroke="#202020" stroke-linejoin="round" stroke-width="3"/><path d="M32,5V7.407" transform="translate(400 4755)" fill="none" stroke="#202020" stroke-linecap="round" stroke-linejoin="round" stroke-width="3"/><path d="M15,11l2.586,2.407" transform="translate(373.034 4763.443)" fill="none" stroke="#202020" stroke-linecap="round" stroke-linejoin="round" stroke-width="3"/><path d="M9,26h2.586" transform="translate(363.518 4784.55)" fill="none" stroke="#202020" stroke-linecap="round" stroke-linejoin="round" stroke-width="3"/><path d="M50.586,11,48,13.407" transform="translate(425.379 4763.443)" fill="none" stroke="#202020" stroke-linecap="round" stroke-linejoin="round" stroke-width="3"/><path d="M56.586,26H54" transform="translate(434.896 4784.55)" fill="none" stroke="#202020" stroke-linecap="round" stroke-linejoin="round" stroke-width="3"/></g></svg>