<svg xmlns="http://www.w3.org/2000/svg" width="120" height="118.293" viewBox="0 0 120 118.293"><g transform="translate(-1420 -4766)"><path d="M26.486,97.03v22.4a1.7,1.7,0,0,1-3.4,0V97.03a1.7,1.7,0,0,1,3.4,0Zm5.53-1.7a1.7,1.7,0,0,0-1.7,1.7v22.4a1.7,1.7,0,0,0,3.4,0V97.03A1.7,1.7,0,0,0,32.016,95.33Zm-14.46,0a1.7,1.7,0,0,0-1.7,1.7v22.4a1.7,1.7,0,1,0,3.4,0V97.03A1.7,1.7,0,0,0,17.556,95.33ZM121.1,28.894l-11.576,6.683-2.522,8.782a46.856,46.856,0,0,1,9.257,28.115,47.312,47.312,0,0,1-75.649,37.889v13.746a3.841,3.841,0,0,1-3.836,3.837H36.17a2.259,2.259,0,1,1-4.372,0H17.775a2.259,2.259,0,1,1-4.372,0H12.8a3.841,3.841,0,0,1-3.837-3.837V92.345A3.841,3.841,0,0,1,12.8,88.508H17.3v-5.2a4.433,4.433,0,0,1,4.427-4.428h.337a47.888,47.888,0,0,1-.432-6.406A47.326,47.326,0,0,1,59.846,26.04L56.2,24.01a1.7,1.7,0,0,1-.023-2.958l7.575-4.373a1.7,1.7,0,0,1,1.261-.177l28.814,7.173,16.008-9.242c6.04-3.487,15.661-2.137,18.384,2.579,1.257,2.178,2.006,6.619-7.112,11.884ZM60.471,22.5,78.494,32.524l11.088-6.4L64.854,19.966ZM41.032,39.638a1.7,1.7,0,0,1,1.516-.182l7.791,2.808c2.778-5.9,6.333-10.318,10.287-12.906a43.8,43.8,0,0,0-22.4,11.852l.265.112ZM53.55,43.421l3.738,1.347,9.961-5.751V30.268C62.094,31.113,57.187,35.832,53.55,43.421Zm17.1-6.367,4.414-2.548L70.649,32.05ZM25.071,70.775h19.21a80.66,80.66,0,0,1,1.79-15.637L35.117,46.2a1.7,1.7,0,0,1-.569-.892A43.773,43.773,0,0,0,25.071,70.775Zm68.4,6.952a73.686,73.686,0,0,1-3.842,19.888,67.387,67.387,0,0,1,12.195,3.935,43.729,43.729,0,0,0,11-27.375H98.444l-.045.158a1.7,1.7,0,0,1-.784,1ZM70.649,114.682c5.631-.921,10.738-6.366,14.325-14.534a92.863,92.863,0,0,0-14.325-1.331Zm-3.4-40.507H47.682a71.859,71.859,0,0,0,3.944,22.75,95.4,95.4,0,0,1,15.623-1.508V74.175ZM52.922,100.164q.608,1.379,1.28,2.672c3.614,6.926,8.194,11.061,13.045,11.848V98.818a93.12,93.12,0,0,0-14.326,1.346ZM77.28,115.592a43.845,43.845,0,0,0,22.029-11.419,65.842,65.842,0,0,0-10.916-3.354c-2.846,6.719-6.688,11.874-11.112,14.773ZM89.912,79.773a1.7,1.7,0,0,1-2.422-1.562l.064-4.035H70.649V95.416a95.861,95.861,0,0,1,15.61,1.509,68.963,68.963,0,0,0,3.654-17.152ZM73.776,54.633q-1.643.72-3.127,1.328V70.775H87.608l.358-22.5q-.781.16-1.57.306c-3.168,1.636-7.8,3.941-12.619,6.053ZM67.248,57.3c-11.133,4.16-14.62,3.124-16.267,1.844l-.031-.025-1.9-1.553a78.126,78.126,0,0,0-1.363,13.212H67.248ZM25.5,78.882h2.34a4.432,4.432,0,0,1,4.427,4.428v5.2h4.507a3.841,3.841,0,0,1,3.836,3.836v7.438a72.717,72.717,0,0,1,7.649-2.169,75.778,75.778,0,0,1-3.981-23.438H25.07a44.386,44.386,0,0,0,.432,4.706Zm-4.8,9.627h8.167v-5.2a1.028,1.028,0,0,0-1.027-1.027H21.73A1.028,1.028,0,0,0,20.7,83.309v5.2Zm16.511,3.836a.442.442,0,0,0-.436-.436H12.8a.442.442,0,0,0-.436.436v31.766a.442.442,0,0,0,.436.436H36.777a.442.442,0,0,0,.436-.436Zm3.4,13.677a43.848,43.848,0,0,0,19.932,9.554c-3.515-2.309-6.706-6.086-9.357-11.167q-.9-1.716-1.68-3.576a68.573,68.573,0,0,0-8.895,2.56ZM105.8,48.574l-6.375,22.2h13.409a43.394,43.394,0,0,0-7.034-22.2ZM125.27,18.711c-1.621-2.807-9.136-3.992-13.739-1.334L58.3,48.107a1.7,1.7,0,0,1-1.427.127L42.2,42.944l-3.144,2.085L53.079,56.465c.521.39,3.8,1.852,19.314-4.939C80.907,47.8,88.819,43.45,88.9,43.407a1.7,1.7,0,0,1,2.52,1.516l-.482,30.343,4.383-2.531,11.128-38.756a1.7,1.7,0,0,1,.784-1L119.4,25.95C124.121,23.226,126.314,20.52,125.27,18.711Z" transform="translate(1411.041 4753.528)"/></g></svg>