<svg xmlns="http://www.w3.org/2000/svg" width="60" height="60" viewBox="0 0 60 60"><g transform="translate(-1739 -2973)"><g transform="translate(1739 2973)" fill="#fff" stroke="#c3c3c3" stroke-width="1"><circle cx="30" cy="30" r="30" stroke="none"/><circle cx="30" cy="30" r="29.5" fill="none"/></g><g transform="translate(1754.967 2992)"><path d="M1.256,8.772H23.224L16.607,2.156A1.259,1.259,0,1,1,18.388.375l8.735,8.754a1.252,1.252,0,0,1,.375.881,1.189,1.189,0,0,1-.375.881l-8.735,8.754a1.281,1.281,0,0,1-.881.356,1.252,1.252,0,0,1-1.237-1.256,1.219,1.219,0,0,1,.337-.862l6.617-6.617H1.256A1.256,1.256,0,0,1,0,10.009,1.24,1.24,0,0,1,1.256,8.772Z" transform="translate(0 0)" fill="#46143c" fill-rule="evenodd"/></g></g></svg>