<svg xmlns="http://www.w3.org/2000/svg" width="25" height="25" viewBox="0 0 25 25"><g transform="translate(0)"><path d="M21.591,0H3.409A3.409,3.409,0,0,0,0,3.409V21.591A3.409,3.409,0,0,0,3.409,25H21.591A3.409,3.409,0,0,0,25,21.591V3.409A3.409,3.409,0,0,0,21.591,0ZM8.523,19.784A.527.527,0,0,1,8,20.313H5.75a.527.527,0,0,1-.528-.528V10.369a.528.528,0,0,1,.528-.528H8a.528.528,0,0,1,.527.528ZM6.872,8.949A2.131,2.131,0,1,1,9,6.818,2.131,2.131,0,0,1,6.872,8.949ZM20.261,19.821a.484.484,0,0,1-.486.486H17.361a.484.484,0,0,1-.486-.486V15.411c0-.659.193-2.886-1.723-2.886-1.484,0-1.787,1.524-1.847,2.209v5.094a.486.486,0,0,1-.479.486H10.494a.484.484,0,0,1-.484-.486v-9.5a.484.484,0,0,1,.484-.486h2.332a.486.486,0,0,1,.486.486v.821a3.3,3.3,0,0,1,3.111-1.464c3.861,0,3.835,3.605,3.835,5.585Z" transform="translate(0)" fill="#fff"/></g></svg>