<svg xmlns="http://www.w3.org/2000/svg" width="30" height="21.005" viewBox="0 0 30 21.005"><path d="M29.383-2.8A3.758,3.758,0,0,0,26.739-5.44C24.391-6.082,15-6.082,15-6.082s-9.39,0-11.738.618A3.835,3.835,0,0,0,.618-2.8,39.6,39.6,0,0,0,0,4.42a39.457,39.457,0,0,0,.618,7.216A3.759,3.759,0,0,0,3.263,14.28c2.372.643,11.738.643,11.738.643s9.39,0,11.738-.618a3.759,3.759,0,0,0,2.644-2.644A39.615,39.615,0,0,0,30,4.445a37.592,37.592,0,0,0-.618-7.24ZM12.011,8.918V-.077l7.809,4.5Zm0,0" transform="translate(-0.001 6.082)" fill="#fff"/></svg>