<svg xmlns="http://www.w3.org/2000/svg" width="25" height="25.005" viewBox="0 0 25 25.005"><g transform="translate(-0.449)"><path d="M25.385,7.352A9.137,9.137,0,0,0,24.8,4.318,6.405,6.405,0,0,0,21.145.659,9.16,9.16,0,0,0,18.112.078C16.773.015,16.348,0,12.953,0S9.134.015,7.8.073A9.139,9.139,0,0,0,4.767.655,6.1,6.1,0,0,0,2.549,2.1,6.156,6.156,0,0,0,1.108,4.313,9.161,9.161,0,0,0,.527,7.347C.463,8.685.449,9.11.449,12.5s.015,3.82.073,5.153A9.136,9.136,0,0,0,1.1,20.692,6.4,6.4,0,0,0,4.762,24.35a9.162,9.162,0,0,0,3.033.581c1.333.059,1.758.073,5.153.073s3.82-.015,5.153-.073a9.135,9.135,0,0,0,3.033-.581,6.4,6.4,0,0,0,3.659-3.659,9.168,9.168,0,0,0,.581-3.033c.059-1.334.073-1.758.073-5.153s0-3.82-.064-5.153ZM23.133,17.561a6.854,6.854,0,0,1-.43,2.32,4.148,4.148,0,0,1-2.374,2.374,6.878,6.878,0,0,1-2.32.43c-1.319.059-1.714.073-5.051.073s-3.737-.015-5.051-.073a6.85,6.85,0,0,1-2.32-.43,3.848,3.848,0,0,1-1.436-.933,3.888,3.888,0,0,1-.933-1.436,6.879,6.879,0,0,1-.43-2.32c-.059-1.319-.073-1.715-.073-5.051s.015-3.737.073-5.051a6.85,6.85,0,0,1,.43-2.32,3.8,3.8,0,0,1,.938-1.436,3.882,3.882,0,0,1,1.436-.933,6.883,6.883,0,0,1,2.32-.43c1.319-.059,1.715-.073,5.051-.073s3.737.015,5.051.073a6.854,6.854,0,0,1,2.32.43,3.845,3.845,0,0,1,1.436.933A3.887,3.887,0,0,1,22.7,5.144a6.881,6.881,0,0,1,.43,2.32c.059,1.319.073,1.714.073,5.051s-.015,3.727-.073,5.046Zm0,0" transform="translate(0 0)" fill="#fff"/><path d="M131.372,124.5a6.423,6.423,0,1,0,6.423,6.423A6.425,6.425,0,0,0,131.372,124.5Zm0,10.59a4.167,4.167,0,1,1,4.167-4.167A4.167,4.167,0,0,1,131.372,135.09Zm0,0" transform="translate(-118.419 -118.418)" fill="#fff"/><path d="M365.449,90.1a1.5,1.5,0,1,1-1.5-1.5A1.5,1.5,0,0,1,365.449,90.1Zm0,0" transform="translate(-344.318 -84.274)" fill="#fff"/></g></svg>