<svg xmlns="http://www.w3.org/2000/svg" width="60" height="78.003" viewBox="0 0 60 78.003"><g transform="translate(-932 -1289)"><g transform="translate(-39 10)"><rect width="60" height="60" transform="translate(971 1289)" fill="#fff" opacity="0"/><path d="M52.31,282.577l-8.664,4.087A7.11,7.11,0,0,0,37.6,282.9l-8.173-.163a12.987,12.987,0,0,1-3.6-.981l-.817-.49a14.888,14.888,0,0,0-13.4,0v-1.8a1.117,1.117,0,0,0-1.144-1.144L1.635,278A1.228,1.228,0,0,0,.49,279.144L0,298.6a1.117,1.117,0,0,0,1.144,1.144l8.827.163h0a1.093,1.093,0,0,0,1.144-.981v-.981L13.4,296.8a3.747,3.747,0,0,1,2.942-.327l13.731,3.76h0a10.06,10.06,0,0,0,3.106.327,16.271,16.271,0,0,0,6.212-1.308l.163-.163L59.5,286.337a1.065,1.065,0,0,0,.327-1.471,5.465,5.465,0,0,0-7.52-2.289ZM2.289,297.453l.49-17.164,6.539.163-.49,17.328Zm36.127-.163a14.293,14.293,0,0,1-7.847.817L17,294.184a6.261,6.261,0,0,0-4.577.654l-1.308.49.327-11.443a12.8,12.8,0,0,1,12.587-.654l.817.49a8.668,8.668,0,0,0,4.577,1.144l8.01.327a4.883,4.883,0,0,1,4.741,3.923l-12.1-.49a1.144,1.144,0,0,0,0,2.289l13.241.327h0a1.093,1.093,0,0,0,1.144-.981,4.525,4.525,0,0,0-.163-1.471l8.991-4.25h0a3.481,3.481,0,0,1,3.923.49ZM38.415,297.289Z" transform="translate(971 1056.445)" fill-rule="evenodd"/></g><g transform="translate(-39.549)"><path d="M89,107.184A16.183,16.183,0,1,0,105.183,91,16.116,16.116,0,0,0,89,107.184Zm16.183-13.895a13.9,13.9,0,1,1-14.058,13.895A13.883,13.883,0,0,1,105.183,93.289Z" transform="translate(896.549 1212.876)" fill-rule="evenodd"/><path d="M148.962,11.77V6.7a1.144,1.144,0,1,0-2.289,0V11.77a1.144,1.144,0,1,0,2.289,0Zm-8.5,0V1.144A1.093,1.093,0,0,0,139.481,0a1.117,1.117,0,0,0-1.144,1.144V11.77a1.228,1.228,0,0,0,1.144,1.144C139.972,12.914,140.462,12.26,140.462,11.77Zm-8.337,0V6.7a1.117,1.117,0,0,0-1.144-1.144A1.093,1.093,0,0,0,130,6.7V11.77c0,.49.49,1.144.981,1.144A1.228,1.228,0,0,0,132.125,11.77Z" transform="translate(862.251 1289)" fill-rule="evenodd"/><path d="M144.889,145.77l.817,4.25c0,.817-.163,1.471-.817,1.8a1.484,1.484,0,0,1-1.144.49,2.762,2.762,0,0,1-.817-.327l-3.76-1.962-3.923,1.962a1.738,1.738,0,0,1-1.962-.163c-.654-.327-.817-.981-.817-1.8l.817-4.25-3.106-2.942a2.148,2.148,0,0,1-.49-1.962,2,2,0,0,1,1.471-1.308l4.414-.654,1.8-3.923a1.878,1.878,0,0,1,1.8-.981,1.8,1.8,0,0,1,1.635.981l1.962,3.923,4.25.654a2,2,0,0,1,1.471,1.308,1.793,1.793,0,0,1-.49,1.962Zm-1.308.163.817,4.414c0,.163-.163.327-.327.49a.307.307,0,0,1-.49,0l-3.923-1.962a.6.6,0,0,0-.49-.163c-.327,0-.49,0-.654.163l-3.923,1.962a.307.307,0,0,1-.49,0c-.163-.163-.327-.327-.327-.49l.817-4.414a3.031,3.031,0,0,0-.327-1.144l-3.106-2.942c-.163-.163-.327-.327-.163-.654a.352.352,0,0,1,.327-.327l4.414-.654a1.344,1.344,0,0,0,.981-.654l1.8-3.923a.849.849,0,0,1,.654-.327c.163,0,.327.163.49.327l1.8,3.923c.327.327.654.654.981.654l4.414.654a.352.352,0,0,1,.327.327c.163.327.163.49,0,.654l-3.106,2.942A1.766,1.766,0,0,0,143.581,145.933Z" transform="translate(862.564 1176.905)" fill-rule="evenodd"/></g></g></svg>