<svg xmlns="http://www.w3.org/2000/svg" width="54.351" height="60" viewBox="0 0 54.351 60"><path d="M1.961,44.377c0,.226.453.453.679.453H7.621V59.094A.974.974,0,0,0,8.527,60H44.98a1.036,1.036,0,0,0,1.132-.906V44.83h4.755a1.176,1.176,0,0,0,.906-.453,1.011,1.011,0,0,0,0-1.132l-5.887-8.83a1.176,1.176,0,0,0-.906-.453H41.357a1.036,1.036,0,0,0-.906,1.132.974.974,0,0,0,.906.906h3.17l4.528,6.792H33.206L28.678,36h3.849a.974.974,0,0,0,.906-.906,1.036,1.036,0,0,0-.906-1.132h-24c-.226,0-.453.226-.679.453l-5.887,8.83A1.011,1.011,0,0,0,1.961,44.377Zm7.7.453H20.98a1.716,1.716,0,0,0,.906-.453l4.075-6.113V58.189H9.659Zm22.189-.453a1.176,1.176,0,0,0,.906.453H44.074V58.189h-16.3V38.264ZM9.206,36H25.055l-4.528,6.792H4.678Zm28.755-.906a1.036,1.036,0,0,0-.906-1.132,1.07,1.07,0,0,0-1.132,1.132A1.036,1.036,0,0,0,37.055,36,.974.974,0,0,0,37.961,35.094Zm11.547-9.057H48.6l-2.943-1.358-3.17,1.358a2.151,2.151,0,0,1-2.943-2.264L40,20.6l-2.264-2.491a2.309,2.309,0,0,1-.453-2.038,2.237,2.237,0,0,1,1.585-1.585l3.17-.679,1.811-2.943a2.353,2.353,0,0,1,1.811-.906,2.8,2.8,0,0,1,1.811.906l1.585,2.943,3.4.679a1.986,1.986,0,0,1,1.358,1.585,2.2,2.2,0,0,1-.226,2.038L51.319,20.6l.226,3.17a2.207,2.207,0,0,1-.906,2.038,1.7,1.7,0,0,1-1.132.226Zm-37.585,0h-.679l-3.17-1.358L5.13,26.038a2.679,2.679,0,0,1-2.264-.226,2.091,2.091,0,0,1-.679-2.038l.226-3.17L.149,18.113A2.309,2.309,0,0,1-.3,16.075a2.237,2.237,0,0,1,1.585-1.585l3.4-.679,1.585-2.943a2.8,2.8,0,0,1,1.811-.906,2.8,2.8,0,0,1,1.811.906L11.7,13.811l3.17.679a2.237,2.237,0,0,1,1.585,1.585A2.309,2.309,0,0,1,16,18.113L13.734,20.6l.226,3.17a2.091,2.091,0,0,1-.679,2.038,2.872,2.872,0,0,1-1.358.226ZM2.866,16.981l1.811,2.264a1.716,1.716,0,0,1,.453.906L4.9,23.094l2.717-1.132a.689.689,0,0,1,.906,0l2.717,1.132-.226-2.943a1.716,1.716,0,0,1,.453-.906l1.811-2.264L10.564,16.3c-.453,0-.679-.226-.906-.679L8.074,13.132,6.489,15.623q-.34.679-.679.679Zm19.245,2.491a3.218,3.218,0,0,1-1.358-.453c-.679-.679-1.132-1.358-.906-2.038l.226-4.3-2.717-3.17A2.789,2.789,0,0,1,16.9,7.245,2.735,2.735,0,0,1,18.489,5.66l4.3-.906,2.038-3.623A2.378,2.378,0,0,1,26.866,0h0A2.378,2.378,0,0,1,28.9,1.132l2.038,3.623,4.3.906a2.735,2.735,0,0,1,1.585,1.585,2.789,2.789,0,0,1-.453,2.264l-2.717,3.17.226,4.3c.226.679-.226,1.358-.906,2.038a2.679,2.679,0,0,1-2.264.226l-3.849-1.811-3.849,1.811c-.453,0-.679.226-.906.226Zm4.755-4.755c.226,0,.226,0,.453.226l3.849,1.585-.226-4.3a1.361,1.361,0,0,1,.226-.906l2.717-3.17L29.81,7.245c-.226-.226-.679-.453-.906-.679L26.866,2.943,24.6,6.566c0,.226-.453.453-.679.679l-4.075.906,2.717,3.17a1.361,1.361,0,0,1,.226.906l-.226,4.3,3.849-1.585C26.413,14.717,26.64,14.717,26.866,14.717Zm13.358,2.264,2.038,2.264a1.716,1.716,0,0,1,.453.906l-.453,2.943,2.717-1.132a1.011,1.011,0,0,1,1.132,0l2.717,1.132L48.6,20.151a1.361,1.361,0,0,1,.226-.906l2.038-2.264L47.923,16.3a.723.723,0,0,1-.679-.679l-1.585-2.491-1.585,2.491c-.226.453-.453.679-.906.679Z" transform="translate(0.392)" fill-rule="evenodd"/></svg>