<svg xmlns="http://www.w3.org/2000/svg" width="60" height="60" viewBox="0 0 60 60"><path d="M55.147,8.824H42.574L35.956,3.971a8.639,8.639,0,0,0-5.735-1.985H12.574V1.1a1.042,1.042,0,0,0-1.1-1.1H1.1A1.042,1.042,0,0,0,0,1.1V20.956a1.042,1.042,0,0,0,1.1,1.1H11.471a1.042,1.042,0,0,0,1.1-1.1v-.882h1.765c.662.221,1.324.662,1.985.882v13.9A4.992,4.992,0,0,0,21.4,39.926H32.868A1.423,1.423,0,0,0,34.191,38.6a1.235,1.235,0,0,0-1.324-1.1H21.4a2.549,2.549,0,0,1-2.647-2.647v-.221H57.574v.221A2.5,2.5,0,0,1,55.147,37.5H43.456a1.042,1.042,0,0,0-1.1,1.1,1.235,1.235,0,0,0,1.1,1.324H55.147A4.947,4.947,0,0,0,60,34.853V13.9A4.947,4.947,0,0,0,55.147,8.824ZM10.368,19.632H2.426V2.426h7.941Zm4.191-1.985H12.574V4.191H30.221a8.209,8.209,0,0,1,4.412,1.544l4.191,3.088H28.015a3.913,3.913,0,0,0-3.75,3.971A3.639,3.639,0,0,0,26.25,16.1L31.1,18.75a1.478,1.478,0,0,1,.662,1.765,1.659,1.659,0,0,1-1.544,1.1L28.456,21.4A40.478,40.478,0,0,1,15,17.868c0-.221-.221-.221-.441-.221Zm13.676,6.176h2.206A3.579,3.579,0,0,0,33.971,21.4a3.657,3.657,0,0,0-1.765-4.632l-4.853-2.647a1.814,1.814,0,0,1-.882-1.324,1.657,1.657,0,0,1,1.544-1.544H55.147A2.5,2.5,0,0,1,57.574,13.9V27.132H18.75V21.838A65.709,65.709,0,0,0,28.235,23.824Zm-9.485,8.6V29.559H57.574v2.868Zm20.294,7.059a1.146,1.146,0,0,0,.441-.882c0-.221-.221-.441-.441-.662a1.146,1.146,0,0,0-.882-.441,1.672,1.672,0,0,0-.882.441.81.81,0,0,0-.221.662c0,.441,0,.662.221.882a1.672,1.672,0,0,0,.882.441A1.146,1.146,0,0,0,39.044,39.485Zm10.147,9.485H10.809A4.425,4.425,0,0,0,6.4,53.382V58.9A1.042,1.042,0,0,0,7.5,60h45a1.042,1.042,0,0,0,1.1-1.1V53.382a4.425,4.425,0,0,0-4.412-4.412Zm2.206,8.6H8.6V53.382A2.176,2.176,0,0,1,10.809,51.4H49.191A2.176,2.176,0,0,1,51.4,53.382Z" fill-rule="evenodd"/></svg>