<svg xmlns="http://www.w3.org/2000/svg" width="84.711" height="45" viewBox="0 0 84.711 45"><path d="M31.856,33.543c-.131-.806-3.656-1.65-3.019.694C30.881,41.812,37.068,45.056,43.218,45c6.15.056,12.356-3.187,14.381-10.762.637-2.344-2.887-1.5-3.019-.694C53.024,42.881,33.412,42.881,31.856,33.543ZM84.711,14.1H77.474v8.137a2.892,2.892,0,0,0,3.056,3.187,8.7,8.7,0,0,0,4.181-1.162v4.5A14.2,14.2,0,0,1,78.936,30c-4.144,0-7.725-1.875-7.725-7.406V14.1h-2.85V12.9l8.325-9.262h.787V9.862h7.237ZM66.768,9.862V14.1h-2.85V29.625H57.674V14.1h-2.85V9.862h2.85V8.869C57.674,3.037,61.33,0,66.374,0A30.933,30.933,0,0,1,70.18.394V5.4a21.338,21.338,0,0,0-2.812-.262c-1.931,0-3.45.862-3.45,3.469V9.862ZM51.674,29.625H45.412V9.862h6.262Zm.3-26.193a3.45,3.45,0,0,1-6.9,0,3.45,3.45,0,0,1,6.9,0ZM41.062,29.625H34.818V9.862h6.244Zm.3-26.193a3.45,3.45,0,0,1-6.9,0,3.45,3.45,0,0,1,6.9,0ZM29.325,8.794a25.146,25.146,0,0,0-10.987-2.7c-7.987,0-10.781,4.875-10.781,9.206,0,5.194,4.087,8.625,10.162,8.625a11.033,11.033,0,0,0,4.875-1.031V19.462H18.337V14.1H29.925V26.062C27.731,28.331,22.293,30,17.55,30,7.294,30,0,23.793,0,15.037,0,6.131,7.237,0,17.718,0A28.084,28.084,0,0,1,29.325,2.4Z" fill="#fff"/></svg>