<svg xmlns="http://www.w3.org/2000/svg" width="224" height="61" viewBox="0 0 224 61"><g transform="translate(-102 -5990)"><g transform="translate(102 5990)" fill="#fff" stroke="#e5a812" stroke-width="1"><rect width="224" height="61" stroke="none"/><rect x="0.5" y="0.5" width="223" height="60" fill="none"/></g><g transform="translate(114 6001)"><path d="M494.535,154.8a2.1,2.1,0,0,0,.181.868,2.167,2.167,0,0,0,2.177,1.041c.726,0,1.9-.174,1.9-1.215,0-.781-.635-.954-3.175-1.649-2.358-.694-5.079-1.3-5.079-4.165,0-3.21,2.9-4.685,5.986-4.685,3.265,0,6.077,1.215,6.168,4.685h-4.263a1.036,1.036,0,0,0-.544-1.128,2.444,2.444,0,0,0-1.361-.347c-.635,0-1.633.087-1.633.954.091.954,2.177,1.215,4.263,1.735,2.086.607,4.172,1.475,4.172,4.078,0,3.731-3.537,4.946-6.8,4.946-1.723,0-6.531-.607-6.531-5.119Z" transform="translate(-445.556 -132.419)" fill="#2b2a29"/><path d="M643,152.9h4.082V163.23H643Zm4.082-1.128H643V149h4.082Z" transform="translate(-584.678 -136.072)" fill="#2b2a29"/><path d="M708.9,155.508c-1.451,0-1.723,1.3-1.723,2.516s.272,2.6,1.723,2.6c1.542,0,1.814-1.388,1.814-2.6S710.438,155.508,708.9,155.508Zm5.805,7.722H710.71V162.1h0a3.559,3.559,0,0,1-3.175,1.388c-3.084,0-4.535-2.95-4.535-5.466,0-2.43,1-5.38,4.626-5.38a3.58,3.58,0,0,1,2.9,1.388h.091V149H714.7Z" transform="translate(-639.236 -136.072)" fill="#2b2a29"/><path d="M847.986,155.508c-1.542,0-1.814,1.3-1.814,2.516s.272,2.6,1.814,2.6c1.451,0,1.723-1.388,1.723-2.6S849.438,155.508,847.986,155.508Zm5.714,7.722H849.71V162.1h0a3.559,3.559,0,0,1-3.175,1.388c-2.993,0-4.535-2.95-4.535-5.466,0-2.43,1-5.38,4.626-5.38a3.457,3.457,0,0,1,2.9,1.388h.091V149H853.7Z" transform="translate(-765.628 -136.072)" fill="#2b2a29"/><path d="M985,149h4.082v5.033h0a4.133,4.133,0,0,1,3.356-1.388c2,0,3.719,1.128,3.719,3.471v7.115h-4.082v-5.466c0-1.128-.181-2-1.361-2-.726,0-1.633.347-1.633,2v5.466H985Z" transform="translate(-895.658 -136.072)" fill="#2b2a29"/><path d="M1125.256,196.9a5.949,5.949,0,0,1-1.633.521c-.907.174-1.451.434-1.451,1.128,0,.434.544.954,1.361.954a1.63,1.63,0,0,0,1.723-1.649Zm3.9,2.343a4.264,4.264,0,0,0,.544,2.343h-4.263a4.041,4.041,0,0,1-.091-1.041h-.091a4.368,4.368,0,0,1-3.447,1.3c-2.086,0-3.81-.954-3.81-3.124,0-3.3,3.991-3.124,6.077-3.557.544-.087,1.179-.26,1.179-.868,0-.694-.726-.954-1.361-.954-1.27,0-1.542.607-1.542,1.041h-3.809c.091-2.95,2.993-3.384,5.533-3.384,5.17,0,5.079,2,5.079,3.991Z" transform="translate(-1016.594 -174.427)" fill="#2b2a29"/><path d="M1259,191.26h3.9v1.649h.091a3.146,3.146,0,0,1,2.993-1.909,4.787,4.787,0,0,1,1.179.174v3.471a3.222,3.222,0,0,0-1.542-.26c-1.633,0-2.54.868-2.54,3.124v4.078H1259Z" transform="translate(-1144.805 -174.427)" fill="#2b2a29"/><path d="M1361.986,161.124h2.177v2.43h-2.177v3.557c0,.954.181,1.388,1.27,1.388a3.55,3.55,0,0,0,.907-.087v3.037c-.816,0-1.814.087-2.63.087-1.723,0-3.719-.26-3.719-3.037v-4.946H1356v-2.43h1.814V158h4.172Z" transform="translate(-1233.007 -144.291)" fill="#2b2a29"/><path d="M1456,149h4.082v5.033h0a4.133,4.133,0,0,1,3.356-1.388c2,0,3.719,1.128,3.719,3.471v7.115h-4.081v-5.466c0-1.128-.181-2-1.361-2-.726,0-1.633.347-1.633,2v5.466H1456Z" transform="translate(-1323.937 -136.072)" fill="#2b2a29"/><path d="M1599.166,196.9a4.6,4.6,0,0,1-1.542.521c-.907.174-1.451.434-1.451,1.128,0,.434.544.954,1.361.954a1.515,1.515,0,0,0,1.633-1.649Zm3.991,2.343a4.2,4.2,0,0,0,.453,2.343h-4.172a2.047,2.047,0,0,1-.091-1.041h-.091a4.368,4.368,0,0,1-3.447,1.3c-2.086,0-3.81-.954-3.81-3.124,0-3.3,3.991-3.124,6.077-3.557.544-.087,1.089-.26,1.089-.868,0-.694-.635-.954-1.27-.954-1.27,0-1.542.607-1.542,1.041h-3.809c.091-2.95,2.993-3.384,5.533-3.384,5.079,0,5.079,2,5.079,3.991Z" transform="translate(-1447.601 -174.427)" fill="#2b2a29"/><path d="M1744.361,162.015h4.9c2.086.087,3.9-.607,3.9-2.863,0-1.822-1.451-2.777-3.9-2.777h-4.9Zm0-6.768h4.9c2.268,0,3.356-1.041,3.356-2.43,0-1.735-1.179-2.6-3.356-2.6h-4.9ZM1743,149h6.259c2.449,0,4.716.868,4.716,3.471a3.283,3.283,0,0,1-2.539,3.21h0a3.458,3.458,0,0,1,3.174,3.471c0,1.388-.544,4.078-5.351,4.078H1743Z" transform="translate(-1584.905 -136.072)" fill="#2b2a29"/><path d="M1884.438,195.946h0c-.182.347-.817.434-1.179.434-2.177.434-4.9.347-4.9,2.43a2.145,2.145,0,0,0,2.358,2c2,0,3.719-1.215,3.719-3.21Zm-6.984-1.475c.181-2.43,1.9-3.471,4.354-3.471,1.9,0,3.991.607,3.991,3.3v5.466c0,.434.182.781.726.781.182,0,.272-.087.453-.087V201.5c-.363,0-.544.087-.907.087-1.27,0-1.542-.781-1.542-1.822h0a4.223,4.223,0,0,1-3.9,2.082c-2,0-3.628-.954-3.628-2.95,0-2.95,2.9-3.037,5.8-3.3,1-.174,1.633-.26,1.633-1.388,0-1.735-1.27-2.169-2.812-2.169-1.633,0-2.812.781-2.812,2.43Z" transform="translate(-1706.751 -174.427)" fill="#2b2a29"/><path d="M1993,191.347h1.27v1.735h.091a3.665,3.665,0,0,1,3.447-2.082c2.993,0,3.9,1.562,3.9,3.991v6.594h-1.361v-6.421c0-1.735-.544-3.124-2.721-3.124a3.409,3.409,0,0,0-3.356,3.557v5.987H1993Z" transform="translate(-1812.229 -174.427)" fill="#2b2a29"/><path d="M2102,149h1.27v8.937l5.986-4.946h1.724l-4.535,3.731,4.9,6.508h-1.723l-4.173-5.64-2.177,1.735v3.9H2102Z" transform="translate(-1911.343 -136.072)" fill="#2b2a29"/><path d="M21.224,0l20.59,20.3L20.952,40,0,20.3Z" fill="#fff" fill-rule="evenodd"/><path d="M42.138,23,23,41.308,41.866,59.1,60.732,41.308Z" transform="translate(-20.914 -21.004)" fill="#f1b301" fill-rule="evenodd"/><path d="M151.635,132.277a1.207,1.207,0,0,0,.635.521,1.9,1.9,0,0,0,1.814-.694,5.165,5.165,0,0,0,1.451-2.082,21.1,21.1,0,0,0,1.451-4.859,31.994,31.994,0,0,1,2-6.161,11.176,11.176,0,0,1,2.63-3.471q1.9-1.692,3.265-1.3a2.3,2.3,0,0,1,.635.347l-.454,1.041a1.415,1.415,0,0,0-1.451.434c-.907.781-1.723,2.95-2.54,6.334-.181.868-.363,1.562-.454,2a21.361,21.361,0,0,1-1.723,4.946,13.069,13.069,0,0,1-2.721,3.471c-1.451,1.3-2.63,1.822-3.719,1.562A1.837,1.837,0,0,1,151,133.145Z" transform="translate(-137.304 -104.251)" fill="#2b2a29"/></g></g></svg>