<svg xmlns="http://www.w3.org/2000/svg" width="285" height="46.308" viewBox="0 0 285 46.308"><g transform="translate(-876.404 -101.993)"><g transform="translate(1040.184 101.993)"><g transform="translate(0 0)"><path d="M268.182,68.437h-.415c0-.415.208-.623.415-1.246,0-.415.208-.623.208-1.038s.208-.623.623-1.038c1.038-.415,2.077-.831,3.322-1.454,1.246-.415,2.284-.623,3.53-1.038A38.236,38.236,0,0,1,282.718,62a19.8,19.8,0,0,1,6.853,1.038,3.376,3.376,0,0,1,2.284,3.53,5.529,5.529,0,0,1-.623,2.492,11.9,11.9,0,0,1-2.284,2.284,19.721,19.721,0,0,1-3.53,2.077,29.467,29.467,0,0,1-4.568,1.038c-.415,0-.623.208-.415.415a49.429,49.429,0,0,0,2.907,4.776c1.246,2.077,2.7,4.153,4.153,6.23A22.227,22.227,0,0,0,290.4,89.2a19.387,19.387,0,0,0,3.115,2.7,13.773,13.773,0,0,0,3.945,1.869,9.3,9.3,0,0,0,4.153.831,15.7,15.7,0,0,0,6.645-1.661c.208-.208.415-.208.415,0a.2.2,0,0,1-.208.208,15.421,15.421,0,0,1-8.1,2.284,20.31,20.31,0,0,1-5.4-.623,18.179,18.179,0,0,1-4.568-2.077,19.464,19.464,0,0,1-3.738-3.53,34.557,34.557,0,0,1-3.738-4.984,22.657,22.657,0,0,1-1.246-2.284,30.734,30.734,0,0,1-1.661-2.7c-.623-.831-1.038-1.869-1.661-2.7a18.252,18.252,0,0,0-1.246-2.077c0-.208,0-.208.208-.208a31.106,31.106,0,0,0,4.568-.415,15.6,15.6,0,0,0,3.738-1.454,11.9,11.9,0,0,0,2.284-2.284,6.093,6.093,0,0,0,.831-3.323,4.054,4.054,0,0,0-.208-1.454,4.345,4.345,0,0,0-.831-1.246,4.521,4.521,0,0,0-1.661-1.038,10.521,10.521,0,0,0-2.7-.415,2.634,2.634,0,0,0-1.246.208,1.113,1.113,0,0,0-.831.623,13.067,13.067,0,0,0-1.661,2.284c-.831,1.246-1.661,2.492-2.492,3.945s-1.869,3.115-2.7,4.776c-1.038,1.661-2.077,3.323-2.907,4.776-.831,1.661-1.661,3.115-2.284,4.361s-1.038,2.284-1.454,3.115h-2.907a5.507,5.507,0,0,0-1.246,1.038h-.208c-.208,0-.208-.208,0-.208,3.323-4.984,6.23-9.345,8.514-13.29,2.492-3.945,4.361-7.476,6.022-10.591a1.607,1.607,0,0,0,.208-.623.725.725,0,0,0-.415-.208,25.03,25.03,0,0,0-6.437,2.077,11.41,11.41,0,0,0-1.869,1.454A11,11,0,0,0,268.182,68.437Z" transform="translate(-263.25 -49.125)" fill="#e5a812"/><path d="M409.121,127.607a24.886,24.886,0,0,1-2.284,2.492,15.681,15.681,0,0,1-2.907,2.284,22.7,22.7,0,0,1-3.115,1.661,8.609,8.609,0,0,1-3.323.623c-1.661,0-2.492-.831-2.492-2.284a6.575,6.575,0,0,1,.831-3.323,12.155,12.155,0,0,1,2.077-3.53,15.39,15.39,0,0,1,2.7-2.492A6.186,6.186,0,0,1,403.514,122a1.755,1.755,0,0,1,1.246.415c.208,0,.208.415.208.623a5.283,5.283,0,0,1-.415,1.454,3.892,3.892,0,0,1-1.246,1.454,18.252,18.252,0,0,1-2.077,1.246,12.567,12.567,0,0,1-3.115.415,7.029,7.029,0,0,0-.623,1.661,7.379,7.379,0,0,0-.415,2.077c0,1.661.831,2.284,2.077,2.284a5.748,5.748,0,0,0,2.7-.623,11.19,11.19,0,0,0,2.7-1.454,10.885,10.885,0,0,0,2.284-2.077,8.439,8.439,0,0,0,1.869-2.077h.208A.2.2,0,0,1,409.121,127.607Zm-5.814-4.361c0-.415-.208-.623-.831-.623-.415,0-.623.208-1.038.415a5.506,5.506,0,0,0-1.246,1.038c-.415.415-.623,1.038-1.038,1.454a9.024,9.024,0,0,1-.831,1.454.725.725,0,0,0,.415.208h.415a4.1,4.1,0,0,0,2.907-1.246A3.348,3.348,0,0,0,403.306,123.246Z" transform="translate(-367.641 -96.666)" fill="#e5a812"/><path d="M474.165,123.415a13.236,13.236,0,0,1-1.869.415c-.623.208-1.454.208-2.076.415-.831,0-1.661.208-2.284.208a5.161,5.161,0,0,1-1.661.208c-.208,0-.208.208-.415.208v.623a16.03,16.03,0,0,1-.415,3.115,12.009,12.009,0,0,1-1.038,2.907,7.181,7.181,0,0,1-1.454,2.492,7.3,7.3,0,0,1-1.454,1.869,4.9,4.9,0,0,1-1.869,1.246,4.108,4.108,0,0,1-2.284.415,2.874,2.874,0,0,1-3.115-3.115,2.633,2.633,0,0,1,.208-1.246l-2.492,1.246a5.529,5.529,0,0,1-2.492.623,1.586,1.586,0,0,1-1.038-.415,1.756,1.756,0,0,1-.415-1.246,5.415,5.415,0,0,1,.623-2.284c.415-.831.831-1.661,1.454-2.7a21.882,21.882,0,0,1,1.454-2.284,16.57,16.57,0,0,0,1.246-1.661c0-.208.208-.208.415-.415s.415-.208.623-.415c.208,0,.623-.208.831-.208a8.993,8.993,0,0,0,1.038-.208c.208,0,.208,0,.208.208a.725.725,0,0,1-.415.208c-.208,0-.415.208-.831.623a17.951,17.951,0,0,0-1.454,2.077,30.75,30.75,0,0,1-1.661,2.7c-.415.831-.623,1.661-1.038,2.492a7.153,7.153,0,0,0-.208,1.869.763.763,0,0,0,.208.623c0,.208.208.208.623.208a3.634,3.634,0,0,0,1.038-.208,8.459,8.459,0,0,0,2.284-1.246A18.762,18.762,0,0,1,456.1,128.4a36.11,36.11,0,0,1,2.284-3.738c.208-.208.623-.415,1.038-.831a2.358,2.358,0,0,1,1.661-.623c.208,0,.415,0,.415.208v1.661c-.208.415-.415,1.038-.831,1.869-.415.623-1.038,1.454-1.661,2.284a18.559,18.559,0,0,1-2.907,2.7v1.661c.208.415.415,1.038.623,1.454a1.622,1.622,0,0,0,.831.831,1.752,1.752,0,0,0,1.454.415,3.123,3.123,0,0,0,2.284-.831,9.219,9.219,0,0,0,1.661-2.284,18.27,18.27,0,0,0,1.038-3.115,15.713,15.713,0,0,0,.208-3.115v-2.284c-.208-.415-.415-.831-1.038-.831-.208-.208-.208-.415,0-.415a1.57,1.57,0,0,0,.831-.208,1.607,1.607,0,0,1,.623-.208h.415c0,.208.208.208.415.415a8.991,8.991,0,0,0,1.038.208c.415,0,1.246.208,2.077.208,1.038,0,2.077-.208,3.323-.208a11.02,11.02,0,0,0,2.284-.623c.208,0,.208,0,.208.208C474.58,123.208,474.372,123.415,474.165,123.415Zm-13.913,1.661a.643.643,0,0,0-.208-.415.447.447,0,0,0-.415-.415c-.208,0-.415.208-.623.415a3.725,3.725,0,0,0-1.038,1.454,5.839,5.839,0,0,0-1.038,2.284,11.242,11.242,0,0,0-.831,3.115,11.891,11.891,0,0,0,3.115-3.53A7.044,7.044,0,0,0,460.252,125.077Z" transform="translate(-409.635 -97.458)" fill="#e5a812"/><path d="M565.35,121.022c-.831,1.038-1.661,2.077-2.7,3.323a36.1,36.1,0,0,1-3.115,2.7,13.556,13.556,0,0,1-3.115,2.077,5.027,5.027,0,0,1-2.7.831,2.044,2.044,0,0,1-1.661-.623,2.226,2.226,0,0,1-.415-1.246,9.14,9.14,0,0,1,.415-2.077,18.994,18.994,0,0,1,1.454-2.907c-.415.623-1.038,1.246-1.661,2.077l-1.869,1.869c-.831.623-1.454,1.038-2.077,1.454a3.35,3.35,0,0,1-1.869.623c-.623,0-1.038-.415-1.038-1.246a5.478,5.478,0,0,1,1.038-3.115,12.174,12.174,0,0,1,2.7-3.945,29.664,29.664,0,0,1,3.738-3.115,8.892,8.892,0,0,1,4.568-1.246c.208-.415.415-.623.415-.831a.725.725,0,0,0,.415-.208l1.661-.415h.208l-.623.623a2.868,2.868,0,0,1-.623.831c.208,0,.623.208.831.208h.831c.208.208.415.208.415.415h-1.246a2.258,2.258,0,0,0-1.038-.208c-1.661,3.115-2.907,5.4-3.738,7.268a9.167,9.167,0,0,0-1.038,3.945,1.248,1.248,0,0,0,.208.831c.208.208.415.208,1.038.208a4.642,4.642,0,0,0,2.077-.623,17.322,17.322,0,0,0,2.492-1.661,17.937,17.937,0,0,0,2.907-2.7,39.891,39.891,0,0,0,2.907-3.115.2.2,0,0,1,.208-.208Zm-8.514-4.153a6.7,6.7,0,0,0-3.738,1.246c-1.038,1.038-2.077,2.077-3.115,3.323a19.715,19.715,0,0,0-2.077,3.53,16.329,16.329,0,0,0-.831,2.492c0,.415.208.623.415.623a1.9,1.9,0,0,0,1.038-.623,6.312,6.312,0,0,0,1.454-1.038,15.86,15.86,0,0,0,1.869-1.869,8.13,8.13,0,0,0,1.661-2.077c.623-.831,1.246-1.869,1.869-2.907.415-1.038,1.038-1.869,1.454-2.7Z" transform="translate(-486.493 -91.119)" fill="#e5a812"/><path d="M633.913,122.831c-.208.415-.415.623-.623,1.038a2.865,2.865,0,0,1-.623.831c0,.208,0,.208-.208.208V124.7l-.415-.415c-.208,0-.208-.208-.415-.208a1.872,1.872,0,0,0-1.038-.208,6.419,6.419,0,0,0-1.661.415,9.029,9.029,0,0,0-1.453,1.246,5.359,5.359,0,0,0-1.869,1.869c-.623.623-1.038,1.454-1.661,2.077l-1.246,2.492c-.415.831-1.038,1.454-1.454,2.284,0,.208-.208.208-.415.208a.643.643,0,0,1-.415-.208c-.208-.208-.415-.415-.415-.623a3.51,3.51,0,0,1,.415-1.038l1.869-3.115c.623-1.038,1.038-2.077,1.661-2.907.623-1.038,1.038-1.661,1.454-2.492.415-.623.623-1.246.831-1.454.208-.415.208-.623.415-.623l.415.415c.415.208.623.415.623.831a.725.725,0,0,0-.208.415c-.208.208-.415.623-.623.831a1.574,1.574,0,0,1-.415.831.763.763,0,0,0-.208.623l-.208.208c.208,0,.208,0,.415-.208.208-.415.831-.831,1.246-1.246a11.519,11.519,0,0,0,1.661-1.246,7.38,7.38,0,0,1,1.869-.831,2.239,2.239,0,0,1,1.454-.415c.415,0,.623,0,.831.208C633.913,122.623,633.913,122.831,633.913,122.831Z" transform="translate(-545.918 -96.666)" fill="#e5a812"/><path d="M706.755.623c0,.208-.208.415-.415.623a1.586,1.586,0,0,0-.415,1.038.447.447,0,0,1-.415.415l-.208-.208c-.208,0-.415,0-.415-.208a.763.763,0,0,1-.623-.208h-1.038a5.749,5.749,0,0,0-1.869.208,5.131,5.131,0,0,0-1.869.831,31.773,31.773,0,0,0-3.323,2.7,32.35,32.35,0,0,0-3.323,4.153c-2.492,3.53-4.568,6.853-6.437,9.968s-3.53,5.814-4.776,8.306-2.284,4.568-2.907,6.23a11.114,11.114,0,0,0-.831,3.738,2.238,2.238,0,0,0,.415,1.661,1.256,1.256,0,0,0,1.246.623,4.962,4.962,0,0,0,2.907-1.038,26.3,26.3,0,0,0,2.7-2.284c.623-1.038,1.454-2.077,2.077-3.115.623-1.246,1.246-2.284,1.869-3.323a.2.2,0,0,1,.208-.208c.208.208.208.208,0,.623a33.61,33.61,0,0,1-2.077,3.738A20.412,20.412,0,0,1,684.744,38a11.011,11.011,0,0,1-2.492,2.077,5.027,5.027,0,0,1-2.7.831,2.587,2.587,0,0,1-2.284-.831A3.1,3.1,0,0,1,676.645,38a7.566,7.566,0,0,1,.415-2.907c.415-.831.831-2.077,1.661-3.738-1.038,1.246-1.869,2.492-2.7,3.323a15.152,15.152,0,0,1-2.077,1.869,4.794,4.794,0,0,1-1.454,1.038,2.952,2.952,0,0,1-1.246.415,1.586,1.586,0,0,1-1.038-.415A2.248,2.248,0,0,1,670,36.34a3.653,3.653,0,0,1,.208-1.246,5.2,5.2,0,0,1,.831-1.454,20.72,20.72,0,0,1,4.568-5.607,14.24,14.24,0,0,1,6.23-2.7c1.869-3.115,3.53-6.022,5.191-8.514s3.322-4.776,5.191-7.268c1.661-1.869,3.322-3.738,4.776-5.191a24.5,24.5,0,0,1,4.984-3.53A7.12,7.12,0,0,1,705.3,0a1.872,1.872,0,0,1,1.038.208A.447.447,0,0,1,706.755.623ZM681.421,26.165A5.268,5.268,0,0,0,678.1,27a8.441,8.441,0,0,0-2.077,1.869,31.531,31.531,0,0,0-2.907,4.361,6.948,6.948,0,0,0-.831,2.907c0,.208,0,.208.208.208a.2.2,0,0,0,.208.208c.415,0,.831-.208,1.454-.831a23.481,23.481,0,0,0,2.284-2.284c.831-.831,1.661-2.077,2.7-3.323A24.467,24.467,0,0,0,681.421,26.165Z" transform="translate(-585.535 0)" fill="#e5a812"/><path d="M746.006,124.869c0,.208-.208.208-.208,0-.208-.415-.623-.623-1.454-.623a3.85,3.85,0,0,0-1.454.415,1.291,1.291,0,0,0-.831,1.246c0,.415.208.623.208,1.038a4.53,4.53,0,0,1,.831,1.038,11.9,11.9,0,0,1,.831,1.454,2.951,2.951,0,0,1,.415,1.246,4.428,4.428,0,0,1-.623,2.492,5.6,5.6,0,0,1-1.661,1.454,7.374,7.374,0,0,1-1.869.831c-.623,0-1.038.208-1.454.208-2.284,0-3.53-.831-3.738-2.284.208-.208.415-.415.623-.415l.623-.623v.208a3.736,3.736,0,0,0,1.246,1.869,2.358,2.358,0,0,0,1.661.623h1.038c.415-.208.831-.208,1.246-.415s.623-.623.831-.831a2.238,2.238,0,0,0,.415-1.661,2.634,2.634,0,0,0-.208-1.246,4.541,4.541,0,0,0-.623-1.038l-.623-1.246a1.755,1.755,0,0,1-.415-1.246,5.283,5.283,0,0,1,.415-1.454l1.246-1.246c.623-.415,1.038-.831,1.661-1.246A4.888,4.888,0,0,1,745.8,123c.623,0,.831.208.831.623,0,.208-.208.415-.208.623C746.213,124.454,746.213,124.661,746.006,124.869Z" transform="translate(-637.038 -97.458)" fill="#e5a812"/></g></g><g transform="translate(876.404 118.432)"><g transform="translate(0 0)"><path d="M496.392,159.447a3.208,3.208,0,0,0,.256,1.278c.511,1.278,1.918,1.534,3.068,1.534,1.023,0,2.685-.256,2.685-1.79,0-1.151-.895-1.406-4.475-2.429-3.324-1.023-7.159-1.918-7.159-6.137,0-4.73,4.091-6.9,8.438-6.9,4.6,0,8.566,1.79,8.694,6.9H501.89a1.547,1.547,0,0,0-.767-1.662,3.329,3.329,0,0,0-1.918-.511c-.895,0-2.3.128-2.3,1.406.128,1.406,3.068,1.79,6.009,2.557,2.94.895,5.881,2.173,5.881,6.009,0,5.5-4.986,7.287-9.588,7.287-2.429,0-9.2-.895-9.2-7.543Z" transform="translate(-490 -145)" fill="#2b2a29"/><path d="M643,154.753h5.753v15.214H643Zm5.753-1.662H643V149h5.753Z" transform="translate(-623.44 -148.489)" fill="#2b2a29"/><path d="M711.31,158.588c-2.045,0-2.429,1.918-2.429,3.708s.383,3.835,2.429,3.835c2.173,0,2.557-2.046,2.557-3.835S713.483,158.588,711.31,158.588Zm8.182,11.378h-5.625V168.3h0a4.942,4.942,0,0,1-4.475,2.046C705.045,170.35,703,166,703,162.3c0-3.58,1.406-7.926,6.52-7.926a4.968,4.968,0,0,1,4.091,2.046h.128V149h5.753Z" transform="translate(-675.769 -148.489)" fill="#2b2a29"/><path d="M850.438,158.588c-2.173,0-2.557,1.918-2.557,3.708s.384,3.835,2.557,3.835c2.046,0,2.429-2.046,2.429-3.835S852.483,158.588,850.438,158.588Zm8.054,11.378h-5.625V168.3h0a4.942,4.942,0,0,1-4.475,2.046C844.173,170.35,842,166,842,162.3c0-3.58,1.406-7.926,6.52-7.926a4.8,4.8,0,0,1,4.091,2.046h.128V149h5.753Z" transform="translate(-796.998 -148.489)" fill="#2b2a29"/><path d="M985,149h5.753v7.415h0a5.715,5.715,0,0,1,4.73-2.046c2.813,0,5.242,1.662,5.242,5.114v10.483h-5.753v-8.054c0-1.662-.256-2.94-1.918-2.94-1.023,0-2.3.511-2.3,2.94v8.054H985Z" transform="translate(-921.716 -148.489)" fill="#2b2a29"/><path d="M1128.228,199.694a8.128,8.128,0,0,1-2.3.767c-1.278.256-2.045.639-2.045,1.662a1.765,1.765,0,0,0,1.918,1.406,2.342,2.342,0,0,0,2.429-2.429Zm5.5,3.452a6.514,6.514,0,0,0,.767,3.452h-6.009a6.226,6.226,0,0,1-.128-1.534h-.128a6.014,6.014,0,0,1-4.858,1.918c-2.94,0-5.37-1.406-5.37-4.6,0-4.858,5.625-4.6,8.566-5.242.767-.128,1.662-.384,1.662-1.278,0-1.023-1.023-1.406-1.918-1.406-1.79,0-2.173.895-2.173,1.534h-5.369c.128-4.347,4.219-4.986,7.8-4.986,7.287,0,7.16,2.94,7.16,5.881Z" transform="translate(-1037.713 -185.119)" fill="#2b2a29"/><path d="M1259,191.384h5.5v2.429h.128a4.427,4.427,0,0,1,4.219-2.813,6.478,6.478,0,0,1,1.662.256v5.114a4.371,4.371,0,0,0-2.173-.384c-2.3,0-3.58,1.278-3.58,4.6V206.6H1259Z" transform="translate(-1160.687 -185.119)" fill="#2b2a29"/><path d="M1364.438,162.6h3.068v3.58h-3.068v5.242c0,1.406.256,2.046,1.79,2.046a4.8,4.8,0,0,0,1.278-.128v4.475c-1.151,0-2.557.128-3.708.128-2.429,0-5.242-.384-5.242-4.475v-7.287H1356V162.6h2.557V158h5.881Z" transform="translate(-1245.286 -156.338)" fill="#2b2a29"/><path d="M1456,149h5.753v7.415h0a5.715,5.715,0,0,1,4.73-2.046c2.813,0,5.242,1.662,5.242,5.114v10.483h-5.753v-8.054c0-1.662-.256-2.94-1.918-2.94-1.023,0-2.3.511-2.3,2.94v8.054H1456Z" transform="translate(-1332.501 -148.489)" fill="#2b2a29"/><path d="M1602.1,199.694a6.3,6.3,0,0,1-2.173.767c-1.278.256-2.046.639-2.046,1.662a1.765,1.765,0,0,0,1.918,1.406,2.184,2.184,0,0,0,2.3-2.429Zm5.625,3.452a6.423,6.423,0,0,0,.639,3.452h-5.881a3.149,3.149,0,0,1-.128-1.534h-.128a6.014,6.014,0,0,1-4.858,1.918c-2.94,0-5.37-1.406-5.37-4.6,0-4.858,5.625-4.6,8.566-5.242.767-.128,1.534-.384,1.534-1.278,0-1.023-.9-1.406-1.79-1.406-1.79,0-2.173.895-2.173,1.534h-5.37c.128-4.347,4.219-4.986,7.8-4.986,7.159,0,7.159,2.94,7.159,5.881Z" transform="translate(-1451.114 -185.119)" fill="#2b2a29"/></g></g></g></svg>